<?xml version="1.0" standalone="no"?>
<!DOCTYPE svg PUBLIC "-//W3C//DTD SVG 20010904//EN"
 "http://www.w3.org/TR/2001/REC-SVG-20010904/DTD/svg10.dtd">
<svg version="1.0" xmlns="http://www.w3.org/2000/svg"
 width="92.000000pt" height="92.000000pt" viewBox="0 0 92.000000 92.000000"
 preserveAspectRatio="xMidYMid meet">
<metadata>
Created by potrace 1.14, written by Peter Selinger 2001-2017
</metadata>
<g transform="translate(0.000000,92.000000) scale(0.100000,-0.100000)"
fill="#000000" stroke="none">
<path d="M0 460 l0 -460 460 0 460 0 0 460 0 460 -460 0 -460 0 0 -460z m450
215 l0 -95 -95 0 -95 0 0 95 0 95 95 0 95 0 0 -95z m0 -215 l0 -100 -95 0 -95
0 0 100 0 100 95 0 95 0 0 -100z m210 0 l0 -90 -90 0 -90 0 0 90 0 90 90 0 90
0 0 -90z m-210 -215 l0 -95 -95 0 -95 0 0 95 0 95 95 0 95 0 0 -95z m210 0 l0
-95 -90 0 -90 0 0 95 0 95 90 0 90 0 0 -95z"/>
</g>
</svg>
